<svg width="300" height="300" viewBox="0 0 300 300" fill="none" xmlns="http://www.w3.org/2000/svg">
<g clip-path="url(#clip0_10936_3875)">
<path d="M150 300C232.843 300 300 232.843 300 150C300 67.1573 232.843 0 150 0C67.1573 0 0 67.1573 0 150C0 232.843 67.1573 300 150 300Z" fill="#2970FF"/>
<path d="M210.982 226.89H89.0162C81.5202 226.89 75.1705 221.422 74.0241 214.014L60.1784 123.973C58.7673 114.802 65.9107 106.512 75.1705 106.512H224.828C234.176 106.512 241.231 114.802 239.82 123.973L225.974 214.014C224.828 221.422 218.478 226.89 210.982 226.89Z" fill="white"/>
<path d="M214.245 84.641C214.686 78.3795 209.836 73 203.486 73H96.6007C90.2511 73 85.3125 78.3795 85.8416 84.641H214.245Z" fill="#FF692E"/>
<path d="M74.9947 104.131H225.005L225.446 101.221C226.592 93.4601 220.683 86.4932 212.835 86.4932H87.1648C79.3159 86.4932 73.4073 93.4601 74.5537 101.221L74.9947 104.131Z" fill="white"/>
<rect x="168.999" y="206.996" width="40.9987" height="3.99987" rx="1.99994" fill="#2970FF"/>
<rect x="178.998" y="196.996" width="30.999" height="3.99987" rx="1.99994" fill="#2970FF"/>
</g>
<defs>
<clipPath id="clip0_10936_3875">
<rect width="300" height="300" fill="white"/>
</clipPath>
</defs>
</svg>
