<svg width="308" height="308" viewBox="0 0 308 308" fill="none" xmlns="http://www.w3.org/2000/svg">
<g clip-path="url(#clip0_11040_3857)" filter="url(#filter0_d_11040_3857)">
<path d="M154 300C236.843 300 304 232.843 304 150C304 67.1573 236.843 0 154 0C71.1573 0 4 67.1573 4 150C4 232.843 71.1573 300 154 300Z" fill="#2970FF"/>
<g clip-path="url(#clip1_11040_3857)">
<mask id="path-2-inside-1_11040_3857" fill="white">
<path fill-rule="evenodd" clip-rule="evenodd" d="M80 67C71.1634 67 64 74.1634 64 83V98.6738H230V83C230 74.1634 222.837 67 214 67H80ZM230 107.411H64V217C64 225.837 71.1634 233 80 233H214C222.837 233 230 225.837 230 217V107.411Z"/>
</mask>
<path fill-rule="evenodd" clip-rule="evenodd" d="M80 67C71.1634 67 64 74.1634 64 83V98.6738H230V83C230 74.1634 222.837 67 214 67H80ZM230 107.411H64V217C64 225.837 71.1634 233 80 233H214C222.837 233 230 225.837 230 217V107.411Z" fill="white"/>
<path d="M64 98.6738H56V106.674H64V98.6738ZM230 98.6738V106.674H238V98.6738H230ZM230 107.411H238V99.4107H230V107.411ZM64 107.411V99.4107H56V107.411H64ZM72 83C72 78.5817 75.5817 75 80 75V59C66.7452 59 56 69.7452 56 83H72ZM72 98.6738V83H56V98.6738H72ZM64 106.674H230V90.6738H64V106.674ZM222 83V98.6738H238V83H222ZM214 75C218.418 75 222 78.5817 222 83H238C238 69.7452 227.255 59 214 59V75ZM80 75H214V59H80V75ZM230 99.4107H64V115.411H230V99.4107ZM72 217V107.411H56V217H72ZM80 225C75.5817 225 72 221.418 72 217H56C56 230.255 66.7452 241 80 241V225ZM214 225H80V241H214V225ZM222 217C222 221.418 218.418 225 214 225V241C227.255 241 238 230.255 238 217H222ZM222 107.411V217H238V107.411H222Z" fill="white" mask="url(#path-2-inside-1_11040_3857)"/>
<circle cx="190.683" cy="82.288" r="3.27632" fill="#F63D68"/>
<circle cx="201.603" cy="82.288" r="3.27632" fill="#FAC515"/>
<circle cx="212.524" cy="82.288" r="3.27632" fill="#15B79E"/>
<path d="M114.523 167.159C114.838 166.494 114.74 165.755 114.893 165.058C115.072 164.244 115.233 163.422 115.353 162.597C115.415 162.174 115.62 162.067 115.993 162.121C116.057 162.129 116.122 162.121 116.185 162.121C137.07 162.121 157.956 162.124 178.84 162.104C179.436 162.104 179.638 162.279 179.741 162.838C180.005 164.271 180.267 165.705 180.382 167.159C180.39 167.261 180.366 167.379 180.507 167.414V167.8C180.421 167.879 180.447 167.986 180.44 168.084C180.454 168.206 180.402 168.34 180.507 168.445V168.832C180.402 169.09 180.402 169.347 180.507 169.605V170.379C180.402 170.637 180.402 170.895 180.507 171.152V171.668C180.428 171.739 180.444 171.835 180.44 171.926C180.444 172.017 180.428 172.112 180.507 172.184V172.828C180.191 173.494 180.289 174.231 180.136 174.927C179.956 175.742 179.794 176.564 179.675 177.389C179.613 177.814 179.411 177.92 179.038 177.865C178.974 177.857 178.909 177.865 178.845 177.865C157.959 177.865 137.071 177.862 116.185 177.882C115.582 177.882 115.393 177.697 115.288 177.143C115.041 175.837 114.824 174.527 114.664 173.207C114.649 173.076 114.731 172.892 114.521 172.83V172.314C114.607 172.235 114.582 172.129 114.589 172.031C114.575 171.909 114.626 171.775 114.521 171.67V171.154C114.626 170.896 114.626 170.638 114.521 170.381V169.607C114.626 169.349 114.626 169.091 114.521 168.833V168.447C114.633 168.333 114.571 168.191 114.589 168.06C114.571 167.929 114.633 167.787 114.521 167.673V167.157L114.523 167.159Z" fill="#FF692E"/>
<path d="M172.701 180.063C174.591 180.063 176.48 180.07 178.369 180.056C178.763 180.052 178.95 180.064 178.78 180.559C177.239 185.019 174.871 188.974 171.677 192.443C171.426 192.715 171.245 192.733 170.922 192.568C168.84 191.506 166.662 190.672 164.428 189.997C164.031 189.876 163.885 189.789 164.056 189.333C165.1 186.562 165.87 183.712 166.346 180.788C166.437 180.229 166.614 180.025 167.226 180.042C169.05 180.095 170.876 180.061 172.7 180.061L172.701 180.063Z" fill="#FF692E"/>
<path d="M122.387 180.063C124.276 180.063 126.164 180.074 128.053 180.055C128.428 180.051 128.553 180.153 128.62 180.531C129.153 183.572 129.908 186.558 131.01 189.447C131.139 189.786 131.025 189.879 130.731 189.965C128.428 190.644 126.2 191.515 124.056 192.597C123.78 192.736 123.625 192.726 123.407 192.492C120.161 189.007 117.785 185.006 116.233 180.509C116.096 180.11 116.226 180.055 116.594 180.058C118.526 180.074 120.457 180.065 122.389 180.065L122.387 180.063Z" fill="#FF692E"/>
<path d="M156.415 180.063C158.861 180.063 161.305 180.073 163.752 180.055C164.188 180.051 164.26 180.14 164.178 180.582C163.66 183.365 162.93 186.087 161.955 188.744C161.833 189.079 161.728 189.268 161.287 189.162C157.314 188.206 153.279 187.699 149.195 187.642C148.65 187.635 148.531 187.47 148.538 186.949C148.569 184.827 148.564 182.702 148.54 180.579C148.535 180.149 148.664 180.049 149.078 180.053C151.523 180.072 153.969 180.061 156.415 180.061V180.063Z" fill="#FF692E"/>
<path d="M130.769 180.063C131.013 180.063 131.223 180.063 131.433 180.063C136.196 180.063 140.96 180.07 145.723 180.053C146.197 180.053 146.38 180.128 146.369 180.665C146.333 182.788 146.344 184.912 146.364 187.037C146.368 187.455 146.299 187.63 145.823 187.639C141.737 187.711 137.7 188.199 133.728 189.169C133.401 189.248 133.231 189.182 133.107 188.847C132.069 186.007 131.29 183.099 130.768 180.061L130.769 180.063Z" fill="#FF692E"/>
<path d="M148.551 202.886C148.551 202.687 148.551 202.498 148.551 202.309C148.551 198.34 148.56 194.37 148.539 190.401C148.537 189.925 148.637 189.801 149.13 189.813C153.084 189.916 156.986 190.391 160.888 191.311C159.591 194.15 158.018 196.76 155.857 198.982C154.315 200.571 152.56 201.846 150.421 202.522C149.83 202.709 149.232 202.879 148.551 202.886Z" fill="#FF692E"/>
<path d="M134.132 191.313C138.051 190.395 141.934 189.912 145.869 189.817C146.265 189.807 146.369 189.896 146.368 190.3C146.352 194.333 146.345 198.366 146.371 202.399C146.375 202.969 146.106 202.895 145.757 202.825C143.782 202.423 142.058 201.51 140.521 200.226C137.647 197.821 135.741 194.722 134.132 191.314V191.313Z" fill="#FF692E"/>
<path d="M156.06 201.822C159.147 199.097 161.242 195.841 162.872 192.255C162.968 192.042 163.027 191.864 163.377 191.968C165.512 192.61 167.592 193.383 169.597 194.363C167.905 196.732 160.555 200.802 156.06 201.822Z" fill="#FF692E"/>
<path d="M138.927 201.793C135.007 201.082 128.568 197.561 125.395 194.407C126.221 193.955 127.079 193.611 127.937 193.265C129.089 192.801 130.271 192.43 131.444 192.028C131.896 191.873 132.052 192.005 132.234 192.406C133.672 195.545 135.473 198.443 137.957 200.875C138.261 201.173 138.574 201.462 138.925 201.795L138.927 201.793Z" fill="#FF692E"/>
<path d="M172.637 159.926C170.793 159.926 168.947 159.914 167.102 159.936C166.676 159.941 166.475 159.872 166.392 159.391C165.878 156.369 165.11 153.409 164.016 150.542C163.884 150.194 164.004 150.112 164.295 150.026C166.616 149.337 168.868 148.472 171.025 147.365C171.29 147.229 171.434 147.293 171.621 147.494C174.863 150.978 177.246 154.973 178.79 159.474C178.927 159.874 178.802 159.936 178.43 159.933C176.5 159.919 174.568 159.926 172.637 159.926Z" fill="#FF692E"/>
<path d="M116.106 159.926C116.883 157.477 117.91 155.249 119.173 153.129C120.363 151.134 121.757 149.291 123.326 147.575C123.586 147.292 123.78 147.245 124.132 147.424C126.233 148.495 128.43 149.334 130.687 150.013C130.995 150.106 131.148 150.185 131.005 150.56C129.901 153.449 129.157 156.435 128.611 159.474C128.562 159.746 128.543 159.937 128.165 159.935C124.175 159.92 120.184 159.925 116.106 159.925V159.926Z" fill="#FF692E"/>
<path d="M156.362 159.927C153.959 159.927 151.557 159.915 149.154 159.937C148.704 159.94 148.528 159.873 148.535 159.358C148.57 157.214 148.565 155.067 148.539 152.923C148.534 152.459 148.683 152.36 149.116 152.353C153.223 152.293 157.278 151.785 161.273 150.831C161.7 150.73 161.823 150.885 161.95 151.232C162.93 153.91 163.663 156.654 164.187 159.457C164.275 159.93 164.12 159.932 163.761 159.93C161.294 159.92 158.827 159.925 156.36 159.925L156.362 159.927Z" fill="#FF692E"/>
<path d="M130.776 159.875C131.299 156.919 132.038 154.067 133.061 151.287C133.214 150.873 133.356 150.729 133.829 150.842C137.74 151.786 141.712 152.274 145.733 152.346C146.227 152.355 146.376 152.477 146.369 152.989C146.338 155.134 146.352 157.28 146.359 159.425C146.359 159.728 146.373 159.936 145.941 159.934C140.942 159.917 135.942 159.92 130.943 159.917C130.902 159.917 130.86 159.896 130.774 159.872L130.776 159.875Z" fill="#FF692E"/>
<path d="M160.899 148.678C156.947 149.601 153.019 150.081 149.041 150.177C148.558 150.189 148.546 149.99 148.548 149.625C148.556 145.656 148.575 141.685 148.532 137.716C148.525 137.02 148.816 137.068 149.272 137.159C151.317 137.57 153.089 138.531 154.659 139.877C157.449 142.271 159.329 145.314 160.901 148.676L160.899 148.678Z" fill="#FF692E"/>
<path d="M134.128 148.675C136.024 144.713 138.267 141.13 141.977 138.703C143.154 137.933 144.444 137.431 145.822 137.149C146.207 137.07 146.371 137.123 146.369 137.596C146.348 141.629 146.35 145.662 146.367 149.695C146.367 150.104 146.254 150.183 145.865 150.172C141.931 150.076 138.049 149.59 134.128 148.677V148.675Z" fill="#FF692E"/>
<path d="M169.681 145.58C167.616 146.605 165.507 147.365 163.359 148.028C162.943 148.157 162.941 147.861 162.845 147.655C161.906 145.63 160.82 143.691 159.491 141.893C158.507 140.563 157.39 139.352 156.182 138.211C161.272 139.566 165.744 142.036 169.681 145.58Z" fill="#FF692E"/>
<path d="M125.358 145.577C129.291 142.029 133.766 139.575 139.016 138.115C138.055 139.006 137.25 139.786 136.528 140.644C134.751 142.758 133.352 145.106 132.22 147.616C132.047 148.003 131.902 148.106 131.473 147.97C129.398 147.307 127.352 146.576 125.356 145.579L125.358 145.577Z" fill="#FF692E"/>
<path d="M147.509 168.966C146.88 170.705 146.302 172.304 145.725 173.901C145.63 174.162 145.549 174.43 145.441 174.686C145.25 175.144 144.907 175.412 144.399 175.402C143.868 175.389 143.533 175.099 143.354 174.602C142.727 172.851 142.091 171.102 141.46 169.352C141.089 168.326 140.712 167.303 140.349 166.275C140.069 165.483 140.315 164.857 140.975 164.635C141.585 164.429 142.148 164.769 142.428 165.538C143.076 167.317 143.712 169.1 144.412 171.044C144.791 169.999 145.12 169.107 145.441 168.213C145.766 167.307 146.089 166.401 146.407 165.491C146.593 164.96 146.914 164.589 147.516 164.589C148.119 164.589 148.437 164.964 148.625 165.491C149.199 167.104 149.775 168.715 150.354 170.324C150.423 170.516 150.507 170.702 150.633 171.008C151.298 169.16 151.918 167.439 152.539 165.72C152.582 165.6 152.622 165.476 152.671 165.359C152.934 164.739 153.493 164.446 154.057 164.635C154.659 164.836 154.961 165.428 154.734 166.088C154.241 167.523 153.713 168.948 153.199 170.377C152.721 171.706 152.236 173.031 151.774 174.363C151.578 174.929 151.305 175.391 150.633 175.402C149.957 175.412 149.67 174.953 149.471 174.391C148.914 172.818 148.346 171.25 147.782 169.681C147.714 169.49 147.638 169.302 147.509 168.967V168.966Z" fill="#FEFEFE"/>
<path d="M124.38 171.046C125.071 169.136 125.728 167.35 126.36 165.553C126.556 164.995 126.855 164.589 127.486 164.589C128.119 164.589 128.413 165.005 128.607 165.56C129.24 167.357 129.896 169.143 130.584 171.042C131.175 169.409 131.736 167.869 132.293 166.327C132.394 166.045 132.482 165.758 132.588 165.478C132.863 164.757 133.424 164.433 134.024 164.635C134.667 164.852 134.921 165.459 134.655 166.213C134.036 167.97 133.407 169.722 132.779 171.475C132.418 172.483 132.04 173.485 131.691 174.496C131.504 175.037 131.184 175.4 130.587 175.402C129.986 175.403 129.671 175.022 129.482 174.492C128.836 172.68 128.183 170.87 127.488 168.936C126.833 170.753 126.223 172.45 125.611 174.147C125.559 174.288 125.515 174.43 125.463 174.571C125.272 175.078 124.935 175.412 124.368 175.403C123.799 175.396 123.478 175.049 123.295 174.54C122.652 172.747 122.008 170.955 121.361 169.163C121.028 168.237 120.691 167.312 120.358 166.385C120.043 165.509 120.23 164.916 120.896 164.656C121.549 164.402 122.099 164.745 122.415 165.615C123.058 167.384 123.696 169.155 124.38 171.046Z" fill="#FEFEFE"/>
<path d="M170.652 171.053C171.342 169.144 171.988 167.355 172.638 165.565C172.935 164.745 173.489 164.412 174.128 164.653C174.778 164.898 174.991 165.5 174.699 166.313C173.721 169.033 172.734 171.747 171.761 174.468C171.57 175.001 171.275 175.39 170.675 175.4C170.044 175.412 169.733 175.017 169.535 174.456C168.897 172.649 168.237 170.853 167.544 168.94C166.898 170.74 166.29 172.429 165.683 174.118C165.617 174.298 165.552 174.48 165.48 174.659C165.294 175.12 164.959 175.396 164.455 175.402C163.919 175.407 163.565 175.113 163.388 174.625C162.867 173.198 162.357 171.766 161.844 170.336C161.354 168.966 160.863 167.596 160.381 166.222C160.115 165.461 160.356 164.864 161 164.641C161.602 164.431 162.178 164.747 162.442 165.467C163.053 167.137 163.646 168.809 164.249 170.48C164.306 170.638 164.375 170.793 164.464 171.008C165.098 169.251 165.715 167.565 166.315 165.871C166.535 165.253 166.714 164.598 167.536 164.587C168.359 164.577 168.562 165.22 168.782 165.842C169.384 167.535 169.996 169.225 170.652 171.051V171.053Z" fill="#FEFEFE"/>
<path d="M180.001 144.144C180.001 132.596 189.365 123.232 200.913 123.232H221.825V111L250.986 133.681L221.825 156.362V144.129H195.369C189.588 144.129 184.906 148.811 184.906 154.593C184.906 155.945 185.188 157.224 185.649 158.398C182.141 154.667 179.986 149.658 179.986 144.129L180.001 144.144Z" fill="white"/>
<path fill-rule="evenodd" clip-rule="evenodd" d="M180.614 139.1C180.216 140.706 180.004 142.386 180.001 144.114C180.001 144.119 180.001 144.124 180.001 144.129C180.001 144.134 180.001 144.139 180.001 144.144L179.986 144.129C179.986 144.134 179.986 144.139 179.986 144.144C179.986 144.149 179.986 144.154 179.986 144.159C179.99 146.528 180.389 148.802 181.12 150.919C181.169 151.062 181.22 151.203 181.272 151.344C181.691 152.476 182.206 153.563 182.807 154.593C183.609 155.968 184.564 157.244 185.649 158.398C185.188 157.224 184.906 155.945 184.906 154.593C184.906 153.371 185.115 152.198 185.5 151.108C186.934 147.041 190.81 144.129 195.369 144.129H221.825V156.362L250.986 133.681L221.825 111V123.232H200.913C191.104 123.232 182.871 129.988 180.614 139.1ZM225.825 119.179V127.232H200.913C191.574 127.232 184.001 134.805 184.001 144.144V144.844C184.012 145.093 184.027 145.341 184.049 145.588C186.698 142.261 190.784 140.129 195.369 140.129H225.825V148.183L244.471 133.681L225.825 119.179Z" fill="#2970FF"/>
</g>
</g>
<defs>
<filter id="filter0_d_11040_3857" x="0" y="0" width="308" height="308" filterUnits="userSpaceOnUse" color-interpolation-filters="sRGB">
<feFlood flood-opacity="0" result="BackgroundImageFix"/>
<feColorMatrix in="SourceAlpha" type="matrix" values="0 0 0 0 0 0 0 0 0 0 0 0 0 0 0 0 0 0 127 0" result="hardAlpha"/>
<feOffset dy="4"/>
<feGaussianBlur stdDeviation="2"/>
<feComposite in2="hardAlpha" operator="out"/>
<feColorMatrix type="matrix" values="0 0 0 0 0 0 0 0 0 0 0 0 0 0 0 0 0 0 0.25 0"/>
<feBlend mode="normal" in2="BackgroundImageFix" result="effect1_dropShadow_11040_3857"/>
<feBlend mode="normal" in="SourceGraphic" in2="effect1_dropShadow_11040_3857" result="shape"/>
</filter>
<clipPath id="clip0_11040_3857">
<rect width="300" height="300" fill="white" transform="translate(4)"/>
</clipPath>
<clipPath id="clip1_11040_3857">
<rect width="180" height="180" fill="white" transform="translate(64 60)"/>
</clipPath>
</defs>
</svg>
