<svg width="300" height="300" viewBox="0 0 300 300" fill="none" xmlns="http://www.w3.org/2000/svg">
<g clip-path="url(#clip0_10936_3865)">
<path d="M150 300C232.843 300 300 232.843 300 150C300 67.1573 232.843 0 150 0C67.1573 0 0 67.1573 0 150C0 232.843 67.1573 300 150 300Z" fill="#2970FF"/>
<path d="M143.689 240C157.39 240 168.891 230.239 171.517 217.283H115.896C118.523 230.239 129.988 240 143.689 240Z" fill="#F5F8FF"/>
<path d="M196.792 149.133C196.756 149.133 196.721 149.133 196.685 149.133C167.473 149.133 143.691 125.351 143.691 96.1387C143.691 88.1168 145.537 80.5209 148.767 73.6703C147.098 73.5284 145.395 73.4219 143.691 73.4219C114.443 73.4219 90.6967 97.1326 90.6967 126.416V147.536C90.6967 162.515 84.1301 176.677 72.6297 186.403C68.7963 189.668 67.0925 194.922 68.4768 199.997C70.0741 205.925 75.9308 209.723 82.1069 209.723H205.346C211.806 209.723 217.876 205.535 219.189 199.216C220.218 194.318 218.479 189.455 214.681 186.261C203.607 177.032 197.253 163.437 196.792 149.133Z" fill="#F5F8FF"/>
<path d="M231.089 97.8733C231.089 118.78 214.123 135.747 193.216 135.747C172.309 135.747 155.343 118.78 155.343 97.8733C155.343 76.9667 172.345 60 193.252 60C214.158 60 231.089 76.9667 231.089 97.8733Z" fill="#FF692E"/>
</g>
<defs>
<clipPath id="clip0_10936_3865">
<rect width="300" height="300" fill="white"/>
</clipPath>
</defs>
</svg>
