<svg width="300" height="300" viewBox="0 0 300 300" fill="none" xmlns="http://www.w3.org/2000/svg">
<g clip-path="url(#clip0_11010_3661)">
<path d="M150 300C232.843 300 300 232.843 300 150C300 67.1573 232.843 0 150 0C67.1573 0 0 67.1573 0 150C0 232.843 67.1573 300 150 300Z" fill="#2970FF"/>
<mask id="path-2-inside-1_11010_3661" fill="white">
<path fill-rule="evenodd" clip-rule="evenodd" d="M64 80C64 71.1634 71.1634 64 80 64H209C217.837 64 225 71.1634 225 80V94.7168H64V80ZM64 103.19V209C64 217.837 71.1634 225 80 225H168.876C171.437 218.584 175.615 212.91 181.031 208.554C180.059 207.438 179.17 206.272 178.36 205.073L178.347 205.053L178.333 205.032C168.961 190.902 171.624 172.304 184 161.391V161H184.451C185.426 160.171 186.459 159.388 187.549 158.658C199.283 150.795 214.099 151.35 225 158.931V103.19H64ZM184 213.885V225H175.429C177.482 220.758 180.395 216.968 184 213.885ZM184 202.664V170.239C177.391 179.272 176.767 191.816 183.333 201.715C183.549 202.036 183.772 202.352 184 202.664ZM195.853 161H216.301C209.865 158.385 202.53 158.282 195.853 161Z"/>
</mask>
<path fill-rule="evenodd" clip-rule="evenodd" d="M64 80C64 71.1634 71.1634 64 80 64H209C217.837 64 225 71.1634 225 80V94.7168H64V80ZM64 103.19V209C64 217.837 71.1634 225 80 225H168.876C171.437 218.584 175.615 212.91 181.031 208.554C180.059 207.438 179.17 206.272 178.36 205.073L178.347 205.053L178.333 205.032C168.961 190.902 171.624 172.304 184 161.391V161H184.451C185.426 160.171 186.459 159.388 187.549 158.658C199.283 150.795 214.099 151.35 225 158.931V103.19H64ZM184 213.885V225H175.429C177.482 220.758 180.395 216.968 184 213.885ZM184 202.664V170.239C177.391 179.272 176.767 191.816 183.333 201.715C183.549 202.036 183.772 202.352 184 202.664ZM195.853 161H216.301C209.865 158.385 202.53 158.282 195.853 161Z" fill="white"/>
<path d="M225 94.7168V102.717H233V94.7168H225ZM64 94.7168H56V102.717H64V94.7168ZM64 103.19V95.1905H56V103.19H64ZM168.876 225V233H174.296L176.306 227.966L168.876 225ZM181.031 208.554L186.045 214.787L192.527 209.574L187.064 203.3L181.031 208.554ZM178.36 205.073L184.991 200.596H184.991L178.36 205.073ZM178.347 205.053L171.68 209.475L171.698 209.502L171.716 209.529L178.347 205.053ZM178.333 205.032L171.666 209.454L171.667 209.455L178.333 205.032ZM184 161.391L189.291 167.391L192 165.002V161.391H184ZM184 161V153H176V161H184ZM184.451 161V169H187.393L189.635 167.093L184.451 161ZM187.549 158.658L192.002 165.304L192.002 165.304L187.549 158.658ZM225 158.931L220.433 165.499L233 174.238V158.931H225ZM225 103.19H233V95.1905H225V103.19ZM184 225V233H192V225H184ZM184 213.885H192V196.519L178.801 207.805L184 213.885ZM175.429 225L168.227 221.516L162.67 233H175.429V225ZM184 170.239H192V145.757L177.544 165.515L184 170.239ZM184 202.664L177.544 207.388L192 227.147V202.664H184ZM183.333 201.715L176.666 206.138L176.685 206.165L176.703 206.192L183.333 201.715ZM195.853 161L192.837 153.59L195.853 169V161ZM216.301 161V169L219.313 153.589L216.301 161ZM80 56C66.7452 56 56 66.7452 56 80H72C72 75.5817 75.5817 72 80 72V56ZM209 56H80V72H209V56ZM233 80C233 66.7452 222.255 56 209 56V72C213.418 72 217 75.5817 217 80H233ZM233 94.7168V80H217V94.7168H233ZM64 102.717H225V86.7168H64V102.717ZM56 80V94.7168H72V80H56ZM56 103.19V209H72V103.19H56ZM56 209C56 222.255 66.7452 233 80 233V217C75.5817 217 72 213.418 72 209H56ZM80 233H168.876V217H80V233ZM176.306 227.966C178.358 222.823 181.707 218.276 186.045 214.787L176.017 202.32C169.523 207.543 164.515 214.345 161.446 222.034L176.306 227.966ZM187.064 203.3C186.317 202.442 185.626 201.537 184.991 200.596L171.73 209.549C172.714 211.006 173.802 212.434 174.998 213.807L187.064 203.3ZM184.991 200.596L184.977 200.576L171.716 209.529L171.73 209.549L184.991 200.596ZM185.013 200.63L184.999 200.609L171.667 209.455L171.68 209.475L185.013 200.63ZM185 200.61C177.851 189.832 179.893 175.678 189.291 167.391L178.709 155.39C163.356 168.929 160.071 191.973 171.666 209.454L185 200.61ZM192 161.391V161H176V161.391H192ZM184 169H184.451V153H184V169ZM189.635 167.093C190.377 166.462 191.166 165.864 192.002 165.304L183.096 152.012C181.752 152.912 180.475 153.879 179.267 154.907L189.635 167.093ZM192.002 165.304C200.923 159.326 212.159 159.745 220.433 165.499L229.567 152.363C216.039 142.955 197.643 142.265 183.096 152.012L192.002 165.304ZM233 158.931V103.19H217V158.931H233ZM225 95.1905H64V111.19H225V95.1905ZM192 225V213.885H176V225H192ZM175.429 233H184V217H175.429V233ZM178.801 207.805C174.352 211.609 170.759 216.284 168.227 221.516L182.63 228.484C184.204 225.231 186.437 222.327 189.199 219.966L178.801 207.805ZM176 170.239V202.664H192V170.239H176ZM190 197.293C185.331 190.254 185.777 181.359 190.456 174.963L177.544 165.515C169.005 177.185 168.203 193.378 176.666 206.138L190 197.293ZM190.456 197.941C190.288 197.711 190.124 197.477 189.963 197.239L176.703 206.192C176.974 206.594 177.255 206.993 177.544 207.388L190.456 197.941ZM195.853 169H216.301V153H195.853V169ZM219.313 153.589C210.987 150.205 201.489 150.068 192.837 153.59L198.87 168.41C203.572 166.495 208.743 166.564 213.29 168.411L219.313 153.589Z" fill="white" mask="url(#path-2-inside-1_11010_3661)"/>
<circle cx="186.868" cy="78.829" r="3.17763" fill="#F63D68"/>
<circle cx="197.46" cy="78.829" r="3.17763" fill="#FAC515"/>
<circle cx="208.053" cy="78.829" r="3.17763" fill="#15B79E"/>
<rect x="81" y="132" width="55" height="8" fill="#2970FF"/>
<rect x="81" y="149" width="55" height="8" fill="#2970FF"/>
<rect x="81" y="166" width="55" height="8" fill="#FF692E"/>
<path d="M221.215 209.309C233.703 200.872 237.166 183.892 228.771 171.236C220.376 158.58 203.481 155.205 190.889 163.642C178.296 172.08 174.938 189.06 183.333 201.716C185.327 204.669 187.845 207.305 190.889 209.309C179.346 215.11 172 226.922 172 240H182.179C181.864 226.817 192.358 215.848 205.475 215.532C218.592 215.215 229.505 225.762 229.82 238.945C229.82 239.262 229.82 239.578 229.82 240H239.999C240.104 227.028 232.758 215.11 221.215 209.309ZM205.999 167.439C216.493 167.439 225.098 175.982 225.098 186.634C225.098 197.181 216.598 205.829 205.999 205.829C195.506 205.829 186.901 197.286 186.901 186.634C187.006 175.982 195.506 167.439 205.999 167.439Z" fill="white"/>
</g>
<defs>
<clipPath id="clip0_11010_3661">
<rect width="300" height="300" fill="white"/>
</clipPath>
</defs>
</svg>
