<svg width="300" height="300" viewBox="0 0 300 300" fill="none" xmlns="http://www.w3.org/2000/svg">
<g clip-path="url(#clip0_11010_3642)">
<path d="M150 300C232.843 300 300 232.843 300 150C300 67.1573 232.843 0 150 0C67.1573 0 0 67.1573 0 150C0 232.843 67.1573 300 150 300Z" fill="#2970FF"/>
<path d="M150 240C199.706 240 240 199.706 240 150C240 100.294 199.706 60 150 60C100.294 60 60 100.294 60 150C60 199.706 100.294 240 150 240Z" fill="white"/>
<path d="M187.868 197.452C177.473 205.755 164.31 210.75 150 210.75C116.52 210.75 89.25 183.48 89.25 150C89.25 135.69 94.245 122.527 102.548 112.132L97.755 107.34C88.2375 118.95 82.5 133.8 82.5 150C82.5 187.26 112.74 217.5 150 217.5C166.2 217.5 181.05 211.762 192.728 202.245L187.868 197.452Z" fill="#2970FF"/>
<path d="M112.133 102.548C122.528 94.245 135.691 89.25 150.001 89.25C183.481 89.25 210.751 116.52 210.751 150C210.751 164.31 205.756 177.473 197.453 187.868L202.246 192.66C211.763 181.05 217.501 166.2 217.501 150C217.501 112.74 187.261 82.5 150.001 82.5C133.801 82.5 118.951 88.2375 107.273 97.755L112.133 102.548Z" fill="#2970FF"/>
<path d="M123.136 97.2143L113.551 97.4168L116.386 88.2368C116.926 86.4818 115.913 84.5918 114.158 83.9843C112.403 83.4443 110.513 84.4568 109.906 86.2118L105.721 99.8468C105.721 99.9143 105.721 99.9818 105.653 100.049C105.653 100.184 105.586 100.252 105.586 100.387C105.586 100.522 105.586 100.657 105.586 100.724C105.586 100.792 105.586 100.859 105.586 100.927C105.586 100.994 105.586 100.994 105.586 101.062C105.586 101.197 105.586 101.264 105.653 101.399C105.653 101.534 105.721 101.602 105.721 101.737C105.721 101.872 105.788 101.939 105.788 102.007C105.856 102.142 105.856 102.209 105.923 102.344C105.991 102.412 105.991 102.547 106.058 102.614C106.126 102.682 106.193 102.817 106.261 102.884C106.328 102.952 106.396 103.019 106.463 103.154C106.531 103.222 106.598 103.289 106.666 103.357C106.733 103.424 106.801 103.492 106.936 103.559C107.003 103.627 107.138 103.694 107.206 103.762C107.273 103.829 107.408 103.829 107.476 103.897C107.611 103.964 107.678 104.032 107.813 104.032C107.881 104.032 107.881 104.099 107.948 104.099C108.016 104.099 108.083 104.099 108.151 104.167C108.218 104.167 108.286 104.167 108.353 104.234C108.556 104.302 108.758 104.302 108.961 104.302H109.028L123.271 103.964C125.161 103.897 126.578 102.344 126.578 100.522C126.511 98.6318 124.958 97.1468 123.136 97.2143Z" fill="#2970FF"/>
<path d="M193.808 199.276C193.808 199.208 193.808 199.141 193.808 199.073C193.808 199.006 193.808 199.006 193.808 198.938C193.808 198.803 193.808 198.668 193.74 198.601C193.74 198.533 193.74 198.398 193.673 198.331C193.673 198.196 193.605 198.128 193.538 197.993C193.47 197.926 193.47 197.791 193.403 197.723C193.335 197.656 193.268 197.521 193.268 197.453C193.2 197.386 193.133 197.251 193.133 197.183C193.065 197.116 192.998 196.981 192.93 196.913C192.863 196.846 192.795 196.778 192.728 196.711C192.66 196.643 192.593 196.576 192.458 196.508C192.39 196.441 192.255 196.373 192.188 196.306C192.12 196.238 192.053 196.238 191.918 196.171C191.783 196.103 191.715 196.036 191.58 196.036C191.513 196.036 191.513 196.036 191.513 195.968C191.445 195.968 191.378 195.968 191.31 195.901C191.175 195.901 191.04 195.833 190.973 195.833C190.838 195.833 190.77 195.833 190.635 195.833C190.568 195.833 190.5 195.833 190.433 195.833L176.19 195.901C174.3 195.901 172.815 197.453 172.815 199.276C172.815 201.098 174.233 202.516 175.988 202.651C176.055 202.651 176.123 202.651 176.19 202.651L185.775 202.583L182.805 211.696C182.198 213.451 183.21 215.341 184.965 215.948C185.235 216.016 185.573 216.083 185.843 216.083C187.328 216.151 188.745 215.273 189.218 213.788L193.673 200.221C193.673 200.153 193.673 200.086 193.74 200.018C193.74 199.883 193.808 199.816 193.808 199.681C193.808 199.478 193.808 199.411 193.808 199.276Z" fill="#2970FF"/>
<path d="M150.946 182.752L143.806 141.289L136.666 156.601H109.569C107.591 156.515 106.042 154.795 106.128 152.816C106.214 150.924 107.677 149.461 109.569 149.375H132.021L146.989 117.375L153.527 155.397L161.871 133.289L173.914 149.806H190.431C192.409 149.892 193.958 151.612 193.872 153.591C193.786 155.483 192.323 156.945 190.431 157.031H170.301L164.022 148.343L150.946 182.752Z" fill="#FF692E"/>
</g>
<defs>
<clipPath id="clip0_11010_3642">
<rect width="300" height="300" fill="white"/>
</clipPath>
</defs>
</svg>
