<svg width="308" height="308" viewBox="0 0 308 308" fill="none" xmlns="http://www.w3.org/2000/svg">
<g clip-path="url(#clip0_11002_3676)" filter="url(#filter0_d_11002_3676)">
<path d="M154 300C236.843 300 304 232.843 304 150C304 67.1573 236.843 0 154 0C71.1573 0 4 67.1573 4 150C4 232.843 71.1573 300 154 300Z" fill="#2970FF"/>
<path d="M154 240C203.706 240 244 199.706 244 150C244 100.294 203.706 60 154 60C104.294 60 64 100.294 64 150C64 199.706 104.294 240 154 240Z" fill="white"/>
<path fill-rule="evenodd" clip-rule="evenodd" d="M118.75 111V121.5H129.25V111H118.75ZM116.75 105C114.541 105 112.75 106.791 112.75 109V123.5C112.75 125.709 114.541 127.5 116.75 127.5H131.25C133.459 127.5 135.25 125.709 135.25 123.5V109C135.25 106.791 133.459 105 131.25 105H116.75Z" fill="#2970FF"/>
<path fill-rule="evenodd" clip-rule="evenodd" d="M117 146.75V160.75H131V146.75H117ZM113 138.75C110.791 138.75 109 140.541 109 142.75V164.75C109 166.959 110.791 168.75 113 168.75H135C137.209 168.75 139 166.959 139 164.75V142.75C139 140.541 137.209 138.75 135 138.75H113Z" fill="#FF692E"/>
<path fill-rule="evenodd" clip-rule="evenodd" d="M118.75 186V196.5H129.25V186H118.75ZM116.75 180C114.541 180 112.75 181.791 112.75 184V198.5C112.75 200.709 114.541 202.5 116.75 202.5H131.25C133.459 202.5 135.25 200.709 135.25 198.5V184C135.25 181.791 133.459 180 131.25 180H116.75Z" fill="#2970FF"/>
<rect x="146.499" y="112.5" width="45" height="9.47368" fill="#2970FF"/>
<rect x="146.499" y="150" width="60" height="9.47368" fill="#2970FF"/>
<rect x="146.499" y="187.5" width="45" height="9.47368" fill="#2970FF"/>
</g>
<defs>
<filter id="filter0_d_11002_3676" x="0" y="0" width="308" height="308" filterUnits="userSpaceOnUse" color-interpolation-filters="sRGB">
<feFlood flood-opacity="0" result="BackgroundImageFix"/>
<feColorMatrix in="SourceAlpha" type="matrix" values="0 0 0 0 0 0 0 0 0 0 0 0 0 0 0 0 0 0 127 0" result="hardAlpha"/>
<feOffset dy="4"/>
<feGaussianBlur stdDeviation="2"/>
<feComposite in2="hardAlpha" operator="out"/>
<feColorMatrix type="matrix" values="0 0 0 0 0 0 0 0 0 0 0 0 0 0 0 0 0 0 0.25 0"/>
<feBlend mode="normal" in2="BackgroundImageFix" result="effect1_dropShadow_11002_3676"/>
<feBlend mode="normal" in="SourceGraphic" in2="effect1_dropShadow_11002_3676" result="shape"/>
</filter>
<clipPath id="clip0_11002_3676">
<rect width="300" height="300" fill="white" transform="translate(4)"/>
</clipPath>
</defs>
</svg>
