<svg width="300" height="300" viewBox="0 0 300 300" fill="none" xmlns="http://www.w3.org/2000/svg">
<g clip-path="url(#clip0_11006_3716)">
<path d="M150 300C232.843 300 300 232.843 300 150C300 67.1573 232.843 0 150 0C67.1573 0 0 67.1573 0 150C0 232.843 67.1573 300 150 300Z" fill="#2970FF"/>
<path d="M74 118C74 109.163 81.1634 102 90 102H182C190.837 102 198 109.163 198 118V210C198 218.837 190.837 226 182 226H90C81.1634 226 74 218.837 74 210V118Z" fill="white"/>
<path fill-rule="evenodd" clip-rule="evenodd" d="M112.884 89.907C112.884 86.9786 115.258 84.6047 118.186 84.6047H125.845V74H118.186C109.401 74 102.279 81.1218 102.279 89.907V95.2093H112.884V89.907ZM204.791 197.721V187.116H210.093C213.022 187.116 215.396 184.742 215.396 181.814V174.155H226V181.814C226 190.599 218.878 197.721 210.093 197.721H204.791ZM141.163 84.6047H156.481V74H141.163V84.6047ZM171.799 84.6047H187.117V74H171.799V84.6047ZM202.434 84.6047H210.093C213.022 84.6047 215.396 86.9786 215.396 89.907V97.5659H226V89.907C226 81.1218 218.878 74 210.093 74H202.434V84.6047ZM215.396 112.884V128.202H226V112.884H215.396ZM215.396 143.519V158.837H226V143.519H215.396Z" fill="white"/>
<rect x="104" y="176" width="63" height="8" rx="4" fill="#FF692E"/>
<rect x="104" y="160" width="63" height="8" rx="4" fill="#2970FF"/>
<rect x="104" y="144" width="63" height="8" rx="4" fill="#2970FF"/>
</g>
<defs>
<clipPath id="clip0_11006_3716">
<rect width="300" height="300" fill="white"/>
</clipPath>
</defs>
</svg>
