<svg width="300" height="300" viewBox="0 0 300 300" fill="none" xmlns="http://www.w3.org/2000/svg">
<g clip-path="url(#clip0_11002_3642)">
<path d="M150 300C232.843 300 300 232.843 300 150C300 67.1573 232.843 0 150 0C67.1573 0 0 67.1573 0 150C0 232.843 67.1573 300 150 300Z" fill="#2970FF"/>
<g clip-path="url(#clip1_11002_3642)">
<path d="M197.048 139.143C177.089 139.143 160.857 122.911 160.857 102.952C160.857 91.1 166.611 80.6048 175.424 74H113.81C91.8238 74 74 91.8238 74 113.81V186.19C74 208.176 91.8238 226 113.81 226H186.19C208.176 226 226 208.176 226 186.19V124.576C219.395 133.407 208.9 139.143 197.048 139.143Z" fill="white"/>
<path d="M197.048 131.905C213.038 131.905 226 118.942 226 102.952C226 86.9624 213.038 74 197.048 74C181.058 74 168.096 86.9624 168.096 102.952C168.096 118.942 181.058 131.905 197.048 131.905Z" fill="#FF692E"/>
</g>
</g>
<defs>
<clipPath id="clip0_11002_3642">
<rect width="300" height="300" fill="white"/>
</clipPath>
<clipPath id="clip1_11002_3642">
<rect width="152" height="152" fill="white" transform="translate(74 74)"/>
</clipPath>
</defs>
</svg>
