<svg width="300" height="300" viewBox="0 0 300 300" fill="none" xmlns="http://www.w3.org/2000/svg">
<g clip-path="url(#clip0_11030_3675)">
<path d="M150 300C232.843 300 300 232.843 300 150C300 67.1573 232.843 0 150 0C67.1573 0 0 67.1573 0 150C0 232.843 67.1573 300 150 300Z" fill="#2970FF"/>
<g clip-path="url(#clip1_11030_3675)">
<path fill-rule="evenodd" clip-rule="evenodd" d="M217.422 148.178H68V188.267H217.422V148.178ZM187.356 176.422C191.884 176.422 195.556 172.751 195.556 168.222C195.556 163.693 191.884 160.022 187.356 160.022C182.827 160.022 179.156 163.693 179.156 168.222C179.156 172.751 182.827 176.422 187.356 176.422ZM93.5111 164.578C91.4983 164.578 89.8667 166.209 89.8667 168.222C89.8667 170.235 91.4983 171.867 93.5111 171.867H150C152.013 171.867 153.644 170.235 153.644 168.222C153.644 166.209 152.013 164.578 150 164.578H93.5111ZM177.333 168.222C177.333 172.751 173.662 176.422 169.133 176.422C164.605 176.422 160.933 172.751 160.933 168.222C160.933 163.693 164.605 160.022 169.133 160.022C173.662 160.022 177.333 163.693 177.333 168.222Z" fill="white"/>
<path fill-rule="evenodd" clip-rule="evenodd" d="M217.422 123.571C213.532 125.331 209.214 126.311 204.667 126.311C187.558 126.311 173.689 112.442 173.689 95.3331C173.689 90.7857 174.669 86.4672 176.429 82.5771H76C71.5817 82.5771 68 86.1589 68 90.5771V144.533H217.422V123.571Z" fill="white"/>
<path fill-rule="evenodd" clip-rule="evenodd" d="M217.422 191.911H68V224C68 228.418 71.5817 232 76 232H209.422C213.84 232 217.422 228.418 217.422 224V191.911ZM187.356 220.156C191.884 220.156 195.556 216.484 195.556 211.956C195.556 207.427 191.884 203.756 187.356 203.756C182.827 203.756 179.156 207.427 179.156 211.956C179.156 216.484 182.827 220.156 187.356 220.156ZM93.5111 208.311C91.4983 208.311 89.8667 209.943 89.8667 211.956C89.8667 213.968 91.4983 215.6 93.5111 215.6H150C152.013 215.6 153.644 213.968 153.644 211.956C153.644 209.943 152.013 208.311 150 208.311H93.5111ZM177.333 211.956C177.333 216.484 173.662 220.156 169.133 220.156C164.605 220.156 160.933 216.484 160.933 211.956C160.933 207.427 164.605 203.756 169.133 203.756C173.662 203.756 177.333 207.427 177.333 211.956Z" fill="white"/>
<circle cx="204.666" cy="95.3333" r="27.3333" fill="#FF692E"/>
<path fill-rule="evenodd" clip-rule="evenodd" d="M204.666 81.2529C202.836 81.2529 201.353 82.7363 201.353 84.5661V97.8186C201.353 99.6484 202.836 101.132 204.666 101.132C206.495 101.132 207.979 99.6484 207.979 97.8186V84.5661C207.979 82.7363 206.495 81.2529 204.666 81.2529ZM204.666 102.787C202.836 102.787 201.353 104.271 201.353 106.1C201.353 107.93 202.836 109.413 204.666 109.413C206.496 109.413 207.979 107.93 207.979 106.1C207.979 104.271 206.496 102.787 204.666 102.787Z" fill="white"/>
</g>
</g>
<defs>
<clipPath id="clip0_11030_3675">
<rect width="300" height="300" fill="white"/>
</clipPath>
<clipPath id="clip1_11030_3675">
<rect width="164" height="164" fill="white" transform="translate(68 68)"/>
</clipPath>
</defs>
</svg>
