<svg width="300" height="300" viewBox="0 0 300 300" fill="none" xmlns="http://www.w3.org/2000/svg">
<g clip-path="url(#clip0_10943_3667)">
<path d="M150 300C232.843 300 300 232.843 300 150C300 67.1573 232.843 0 150 0C67.1573 0 0 67.1573 0 150C0 232.843 67.1573 300 150 300Z" fill="#2970FF"/>
<path d="M150.152 204.304C190 204.304 222.304 172 222.304 132.152C222.304 92.3035 190 60 150.152 60C110.303 60 78 92.3035 78 132.152C78 172 110.303 204.304 150.152 204.304Z" fill="white"/>
<path d="M149.81 88.8613C136.567 88.8613 125.483 100.089 125.339 113.692C125.267 123.121 125.195 132.549 125.123 141.906H139.23C139.23 132.477 139.23 123.049 139.302 113.62C139.302 107.79 143.98 103.112 149.81 103.112C155.64 103.112 160.318 107.79 160.318 113.62C160.246 99.9453 160.174 88.8613 149.81 88.8613Z" fill="#2970FF"/>
<path d="M149.804 88.8617C155.49 88.8617 160.24 100.018 160.312 113.621C160.384 123.049 160.384 132.478 160.384 141.906H174.491C174.419 132.478 174.347 123.049 174.275 113.693C174.131 100.09 163.119 88.7897 149.804 88.8617Z" fill="#2970FF"/>
<path d="M125.187 127.8C121.301 127.871 118.134 130.966 118.062 134.925C117.99 146.369 117.918 157.813 117.99 169.256C117.99 173.143 121.157 176.31 125.043 176.31H139.15C139.15 160.116 139.15 143.922 139.222 127.728L125.187 127.8Z" fill="#2970FF"/>
<path d="M149.955 127.728H139.231C135.344 127.728 132.177 130.894 132.177 134.853C132.105 146.297 132.105 157.813 132.105 169.256C132.105 173.143 135.272 176.31 139.159 176.31C150.963 176.31 162.694 176.31 174.498 176.31C178.385 176.31 181.551 173.143 181.623 169.256C181.623 167.169 181.623 165.082 181.623 162.923C171.115 151.263 160.463 139.531 149.955 127.728Z" fill="#2970FF"/>
<path d="M181.622 162.923C181.622 153.566 181.622 144.282 181.55 134.925C181.478 131.038 178.383 127.871 174.424 127.8C166.291 127.728 158.086 127.728 149.953 127.728C149.953 145.865 163.628 161.051 181.622 162.923Z" fill="#2970FF"/>
<path fill-rule="evenodd" clip-rule="evenodd" d="M97.0781 217.532C97.1482 215.269 99.0394 213.555 101.351 213.623C126.357 214.035 151.433 214.172 176.44 213.897L176.439 213.966C176.463 213.943 176.486 213.92 176.51 213.897L189.749 213.76H189.768L198.575 213.623L198.855 213.692C201.166 213.76 202.988 215.612 202.917 217.874C202.777 223.497 202.497 229.189 202.217 234.811C202.077 237.143 200.116 239.063 197.664 239.2C196.228 239.234 194.775 239.286 193.321 239.337C191.868 239.388 190.414 239.44 188.978 239.474L188.979 239.469C188.955 239.471 188.932 239.473 188.908 239.474C184.636 239.611 180.293 239.748 175.95 239.817C175.926 239.793 175.903 239.769 175.879 239.745C175.879 239.746 175.879 239.747 175.879 239.748C151.363 240.228 126.847 240.023 102.332 239.131C99.95 238.994 97.9887 237.143 97.7786 234.743C97.5079 229.312 97.3027 223.816 97.0996 218.381C97.0924 218.189 97.0853 217.997 97.0781 217.806V217.532Z" fill="white"/>
<path d="M128.314 233.097C127.964 233.097 127.614 232.96 127.403 232.686C127.193 232.411 127.053 232.069 127.123 231.726L127.473 228.64C127.473 228.572 127.473 228.503 127.403 228.503C127.333 228.503 127.263 228.503 127.193 228.571L124.602 230.423C124.111 230.834 123.341 230.766 122.92 230.286C122.85 230.217 122.85 230.149 122.78 230.08C122.57 229.737 122.5 229.326 122.64 228.983C122.78 228.709 123.061 228.503 123.341 228.366L126.213 227.132C126.283 227.132 126.353 227.063 126.353 227.063C126.353 226.994 126.353 226.994 126.213 226.926L123.341 225.692C122.99 225.554 122.78 225.28 122.64 224.937C122.5 224.594 122.57 224.252 122.78 223.909C122.92 223.566 123.271 223.36 123.621 223.292C123.971 223.223 124.321 223.292 124.602 223.497L127.193 225.417C127.263 225.486 127.333 225.486 127.403 225.486C127.473 225.486 127.473 225.417 127.473 225.349L127.123 222.263C127.123 221.92 127.193 221.577 127.473 221.303C127.684 221.029 128.034 220.892 128.454 220.892C129.084 220.892 129.645 221.372 129.645 222.057C129.645 222.126 129.645 222.194 129.645 222.263L129.295 225.349C129.295 225.417 129.295 225.486 129.365 225.486C129.435 225.486 129.505 225.486 129.575 225.417L132.166 223.566C132.447 223.36 132.797 223.223 133.147 223.292C133.497 223.36 133.778 223.566 133.988 223.909C134.198 224.252 134.268 224.663 134.128 225.006C133.988 225.28 133.707 225.486 133.427 225.554L130.485 226.789C130.415 226.789 130.345 226.857 130.345 226.926C130.345 226.994 130.415 226.994 130.485 227.063L133.427 228.297C133.778 228.434 133.988 228.709 134.128 229.051C134.268 229.394 134.198 229.737 133.988 230.08C133.848 230.423 133.567 230.629 133.147 230.697C132.797 230.766 132.377 230.697 132.096 230.491L129.505 228.571C129.435 228.503 129.365 228.503 129.295 228.571C129.225 228.571 129.225 228.64 129.225 228.709L129.575 231.794C129.645 232.137 129.505 232.48 129.295 232.754C128.944 232.96 128.664 233.097 128.314 233.097Z" fill="#FF692E"/>
<path d="M142.747 233.098C142.397 233.098 142.046 232.961 141.836 232.686C141.626 232.412 141.486 232.069 141.556 231.726L141.906 228.641C141.906 228.572 141.906 228.503 141.906 228.503C141.836 228.503 141.766 228.503 141.696 228.572L139.104 230.423C138.614 230.835 137.844 230.766 137.423 230.286C137.353 230.218 137.353 230.149 137.283 230.081C137.073 229.738 137.003 229.326 137.143 228.983C137.283 228.709 137.563 228.435 137.914 228.366L140.786 227.132C140.856 227.132 140.926 227.063 140.926 226.995C140.926 226.926 140.856 226.926 140.786 226.858L137.914 225.623C137.563 225.486 137.353 225.212 137.213 224.869C137.073 224.526 137.143 224.184 137.353 223.841C137.493 223.498 137.844 223.292 138.194 223.224C138.544 223.155 138.894 223.224 139.175 223.429L141.766 225.349C141.836 225.418 141.906 225.418 141.976 225.418C142.046 225.418 142.046 225.349 141.976 225.281L141.626 222.195C141.556 221.852 141.696 221.509 141.976 221.235C142.467 220.755 143.237 220.686 143.727 221.166C143.938 221.372 144.078 221.646 144.148 221.989C144.148 222.058 144.148 222.126 144.148 222.195L143.798 225.212C143.798 225.281 143.798 225.349 143.798 225.349C143.868 225.349 143.938 225.349 144.008 225.281L146.599 223.429C146.88 223.224 147.23 223.086 147.58 223.155C147.93 223.224 148.21 223.429 148.421 223.772C148.631 224.115 148.701 224.526 148.561 224.869C148.421 225.212 148.21 225.418 147.86 225.555L144.988 226.789C144.918 226.789 144.848 226.858 144.848 226.926C144.848 226.995 144.918 226.995 144.988 227.063L147.86 228.298C148.21 228.435 148.421 228.709 148.561 229.052C148.701 229.395 148.631 229.738 148.421 230.081C148.28 230.423 148 230.629 147.58 230.698C147.23 230.766 146.88 230.698 146.599 230.492L144.008 228.572C143.938 228.503 143.868 228.503 143.798 228.503C143.727 228.503 143.727 228.572 143.798 228.641L144.148 231.726C144.218 232.069 144.078 232.412 143.798 232.686C143.377 232.961 143.097 233.098 142.747 233.098Z" fill="#FF692E"/>
<path d="M157.108 233.097C156.758 233.097 156.478 232.96 156.268 232.686C156.057 232.411 155.917 232.069 155.987 231.726L156.338 228.64C156.338 228.572 156.338 228.503 156.268 228.503C156.198 228.503 156.128 228.503 156.057 228.571L153.466 230.423C152.975 230.834 152.205 230.766 151.785 230.286C151.715 230.217 151.715 230.149 151.645 230.08C151.434 229.737 151.364 229.326 151.505 228.983C151.645 228.709 151.925 228.434 152.205 228.366L155.077 227.132C155.147 227.132 155.217 227.063 155.217 227.063C155.217 226.994 155.217 226.994 155.077 226.926L152.205 225.692C151.855 225.554 151.645 225.28 151.505 224.937C151.434 224.594 151.434 224.252 151.645 223.909C151.785 223.566 152.135 223.36 152.485 223.292C152.835 223.223 153.186 223.292 153.466 223.497L156.057 225.417C156.128 225.486 156.198 225.486 156.268 225.486C156.338 225.486 156.338 225.417 156.338 225.349L155.987 222.263C155.917 221.92 156.057 221.577 156.338 221.303C156.548 221.029 156.898 220.892 157.318 220.892C157.949 220.892 158.509 221.372 158.509 221.989C158.509 222.057 158.509 222.126 158.509 222.263L158.159 225.349C158.159 225.417 158.159 225.486 158.229 225.486C158.299 225.486 158.369 225.486 158.439 225.417L161.031 223.566C161.311 223.36 161.661 223.223 162.011 223.292C162.362 223.36 162.642 223.566 162.852 223.909C163.062 224.252 163.132 224.663 162.992 225.006C162.852 225.349 162.642 225.554 162.292 225.692L159.42 226.926C159.35 226.926 159.28 226.994 159.28 227.063C159.28 227.132 159.35 227.132 159.42 227.2L162.292 228.503C162.642 228.64 162.852 228.914 162.992 229.257C163.132 229.6 163.062 229.943 162.852 230.286C162.712 230.629 162.432 230.834 162.011 230.903C161.661 230.971 161.311 230.903 161.031 230.697L158.509 228.777C158.439 228.709 158.369 228.709 158.299 228.777C158.229 228.777 158.229 228.846 158.229 228.914L158.579 232C158.649 232.343 158.509 232.686 158.299 232.96C157.879 232.96 157.528 233.097 157.108 233.097Z" fill="#FF692E"/>
<path d="M171.539 233.097C171.188 233.097 170.838 232.96 170.628 232.686C170.418 232.412 170.278 232.069 170.348 231.726L170.698 228.64C170.698 228.572 170.698 228.503 170.628 228.503C170.558 228.503 170.488 228.503 170.418 228.572L167.826 230.423C167.336 230.835 166.565 230.766 166.145 230.286C166.075 230.217 166.005 230.149 166.005 230.08C165.795 229.737 165.725 229.326 165.865 228.983C166.005 228.709 166.285 228.435 166.565 228.366L169.437 227.132C169.507 227.132 169.577 227.063 169.577 226.995C169.577 226.926 169.507 226.926 169.437 226.857L166.565 225.623C166.215 225.486 165.935 225.212 165.865 224.869C165.795 224.526 165.795 224.183 166.005 223.84C166.285 223.223 167.056 223.018 167.686 223.292C167.756 223.292 167.826 223.36 167.896 223.429L170.488 225.349C170.558 225.417 170.628 225.417 170.698 225.417C170.768 225.417 170.768 225.349 170.768 225.28L170.418 222.195C170.348 221.852 170.488 221.509 170.698 221.235C170.908 220.96 171.328 220.823 171.679 220.823C172.309 220.823 172.869 221.303 172.869 221.92C172.869 221.989 172.869 222.058 172.869 222.195L172.519 225.28C172.519 225.349 172.519 225.417 172.589 225.417C172.659 225.417 172.729 225.417 172.799 225.349L175.391 223.497C175.671 223.292 176.021 223.155 176.372 223.223C176.722 223.292 177.002 223.497 177.212 223.84C177.422 224.183 177.492 224.595 177.352 224.937C177.212 225.28 177.002 225.486 176.652 225.623L173.78 226.857C173.71 226.857 173.64 226.926 173.64 226.995C173.64 227.063 173.71 227.063 173.78 227.132L176.652 228.435C177.002 228.572 177.212 228.846 177.352 229.189C177.492 229.532 177.422 229.875 177.212 230.217C177.072 230.56 176.792 230.766 176.372 230.835C176.021 230.903 175.671 230.835 175.391 230.629L172.799 228.709C172.729 228.64 172.659 228.64 172.589 228.709C172.519 228.709 172.519 228.777 172.519 228.846L172.869 231.932C172.939 232.275 172.799 232.617 172.589 232.892C172.239 232.96 171.889 233.097 171.539 233.097Z" fill="#FF692E"/>
</g>
<defs>
<clipPath id="clip0_10943_3667">
<rect width="300" height="300" fill="white"/>
</clipPath>
</defs>
</svg>
