<svg width="300" height="300" viewBox="0 0 300 300" fill="none" xmlns="http://www.w3.org/2000/svg">
<g clip-path="url(#clip0_11019_3669)">
<path d="M150 300C232.843 300 300 232.843 300 150C300 67.1573 232.843 0 150 0C67.1573 0 0 67.1573 0 150C0 232.843 67.1573 300 150 300Z" fill="#2970FF"/>
<mask id="path-2-inside-1_11019_3669" fill="white">
<path fill-rule="evenodd" clip-rule="evenodd" d="M90 74C81.1634 74 74 81.1634 74 90V103H226V90C226 81.1634 218.837 74 210 74H90ZM226 111H130V226H210C218.837 226 226 218.837 226 210V111ZM122 226V111H74V210C74 218.837 81.1634 226 90 226H122Z"/>
</mask>
<path fill-rule="evenodd" clip-rule="evenodd" d="M90 74C81.1634 74 74 81.1634 74 90V103H226V90C226 81.1634 218.837 74 210 74H90ZM226 111H130V226H210C218.837 226 226 218.837 226 210V111ZM122 226V111H74V210C74 218.837 81.1634 226 90 226H122Z" fill="white"/>
<path d="M74 103H66V111H74V103ZM226 103V111H234V103H226ZM130 111V103H122V111H130ZM226 111H234V103H226V111ZM130 226H122V234H130V226ZM122 111H130V103H122V111ZM122 226V234H130V226H122ZM74 111V103H66V111H74ZM82 90C82 85.5817 85.5817 82 90 82V66C76.7452 66 66 76.7452 66 90H82ZM82 103V90H66V103H82ZM226 95H74V111H226V95ZM218 90V103H234V90H218ZM210 82C214.418 82 218 85.5817 218 90H234C234 76.7452 223.255 66 210 66V82ZM90 82H210V66H90V82ZM130 119H226V103H130V119ZM138 226V111H122V226H138ZM210 218H130V234H210V218ZM218 210C218 214.418 214.418 218 210 218V234C223.255 234 234 223.255 234 210H218ZM218 111V210H234V111H218ZM114 111V226H130V111H114ZM74 119H122V103H74V119ZM82 210V111H66V210H82ZM90 218C85.5817 218 82 214.418 82 210H66C66 223.255 76.7452 234 90 234V218ZM122 218H90V234H122V218Z" fill="white" mask="url(#path-2-inside-1_11019_3669)"/>
<circle cx="190" cy="88" r="3" fill="#F63D68"/>
<circle cx="200" cy="88" r="3" fill="#FAC515"/>
<circle cx="210" cy="88" r="3" fill="#15B79E"/>
<rect x="88" y="123" width="24" height="8" fill="#2970FF"/>
<rect x="88" y="139" width="24" height="8" fill="#2970FF"/>
<rect x="88" y="155" width="24" height="8" fill="#FF692E"/>
</g>
<defs>
<clipPath id="clip0_11019_3669">
<rect width="300" height="300" fill="white"/>
</clipPath>
</defs>
</svg>
