<svg width="300" height="300" viewBox="0 0 300 300" fill="none" xmlns="http://www.w3.org/2000/svg">
<g clip-path="url(#clip0_11006_3664)">
<path d="M150 300C232.843 300 300 232.843 300 150C300 67.1573 232.843 0 150 0C67.1573 0 0 67.1573 0 150C0 232.843 67.1573 300 150 300Z" fill="#2970FF"/>
<path fill-rule="evenodd" clip-rule="evenodd" d="M138.001 216.437V239.207C97.8939 233.864 66.1372 202.107 60.7931 162.001H83.5636C88.5269 189.661 110.34 211.474 138.001 216.437ZM216.436 162.001C211.473 189.66 189.66 211.473 162.001 216.436V239.207C202.107 233.863 233.863 202.107 239.207 162.001H216.436ZM239.207 138.001H216.437C211.474 110.34 189.661 88.5268 162.001 83.5636V60.7931C202.107 66.137 233.864 97.894 239.207 138.001ZM83.5633 138.001H60.7929C66.1363 97.8936 97.8933 66.1365 138.001 60.793V83.5634C110.34 88.5262 88.526 110.34 83.5633 138.001ZM60.0005 149.691C60.0002 149.794 60 149.897 60 150C60 150.103 60.0002 150.206 60.0005 150.309V149.691ZM150 60C150.133 60 150.267 60.0003 150.4 60.0009H149.6C149.733 60.0003 149.867 60 150 60Z" fill="white"/>
<path d="M150 202.105C178.777 202.105 202.105 178.777 202.105 150C202.105 121.223 178.777 97.8945 150 97.8945C121.223 97.8945 97.8945 121.223 97.8945 150C97.8945 178.777 121.223 202.105 150 202.105Z" fill="white"/>
<path d="M148.263 160.988C151.673 162.746 155.822 160.847 156.806 157.156L169.556 115L146.365 151.847C143.939 154.765 144.853 159.23 148.263 160.988Z" fill="#FF692E"/>
</g>
<defs>
<clipPath id="clip0_11006_3664">
<rect width="300" height="300" fill="white"/>
</clipPath>
</defs>
</svg>
