<svg width="300" height="300" viewBox="0 0 300 300" fill="none" xmlns="http://www.w3.org/2000/svg">
<g clip-path="url(#clip0_11006_3699)">
<path d="M150 300C232.843 300 300 232.843 300 150C300 67.1573 232.843 0 150 0C67.1573 0 0 67.1573 0 150C0 232.843 67.1573 300 150 300Z" fill="#2970FF"/>
<path d="M195.405 213.357C181.31 223.411 163.915 228.963 145.022 227.912C106.035 225.511 74.5455 194.15 72.1463 155.136C69.1473 108.168 108.134 69.1538 155.068 72.1549C194.055 74.7058 225.395 106.217 227.794 145.082C228.994 163.989 223.445 181.395 213.249 195.5C211.449 197.901 211.749 201.202 213.849 203.303C216.398 205.854 220.746 205.554 222.996 202.553C234.392 186.797 240.69 167.29 239.94 146.132C237.841 98.4146 198.104 60.1505 150.12 60.0004C100.337 59.8504 59.8505 100.365 60.0004 150.184C60.1504 198.051 98.3875 237.966 146.221 239.917C167.364 240.817 186.858 234.365 202.602 222.961C205.601 220.86 205.901 216.508 203.352 213.807C201.103 211.856 197.804 211.706 195.405 213.357Z" fill="white"/>
<path d="M150 217.611C187.279 217.611 217.5 187.369 217.5 150.063C217.5 112.758 187.279 82.5156 150 82.5156C112.721 82.5156 82.5 112.758 82.5 150.063C82.5 187.369 112.721 217.611 150 217.611Z" fill="white"/>
<path d="M177.977 136.973H122.023C119.121 136.973 116.842 134.629 116.842 131.644C116.842 128.66 119.121 126.315 122.023 126.315H177.977C180.878 126.315 183.158 128.66 183.158 131.644C183.158 134.522 180.878 136.973 177.977 136.973Z" fill="#2970FF"/>
<path d="M177.977 153.553H122.023C119.121 153.553 116.842 151.469 116.842 148.816C116.842 146.163 119.121 144.079 122.023 144.079H177.977C180.878 144.079 183.158 146.163 183.158 148.816C183.158 151.469 180.878 153.553 177.977 153.553Z" fill="#2970FF"/>
<path d="M177.977 171.316H122.023C119.121 171.316 116.842 168.971 116.842 165.987C116.842 163.003 119.121 160.658 122.023 160.658H177.977C180.878 160.658 183.158 163.003 183.158 165.987C183.158 168.971 180.878 171.316 177.977 171.316Z" fill="#FF692E"/>
</g>
<defs>
<clipPath id="clip0_11006_3699">
<rect width="300" height="300" fill="white"/>
</clipPath>
</defs>
</svg>
