<svg width="300" height="300" viewBox="0 0 300 300" fill="none" xmlns="http://www.w3.org/2000/svg">
<g clip-path="url(#clip0_11002_3665)">
<path d="M150 300C232.843 300 300 232.843 300 150C300 67.1573 232.843 0 150 0C67.1573 0 0 67.1573 0 150C0 232.843 67.1573 300 150 300Z" fill="#2970FF"/>
<g clip-path="url(#clip1_11002_3665)">
<path d="M232.525 129.05H222.825C220.425 129.125 218.125 128.15 216.45 126.475C214.75 124.8 213.825 122.575 213.825 120.2C213.8 117.825 214.725 115.575 216.375 113.9L223.375 106.9C224.725 105.5 225.475 103.65 225.475 101.675C225.45 99.7 224.675 97.825 223.25 96.4L203.75 76.9C202.35 75.5 200.475 74.725 198.5 74.725H198.45C196.45 74.75 194.575 75.525 193.175 76.95L186.3 83.825C184.625 85.5 182.3 86.425 179.95 86.4C175.05 86.325 171.1 82.275 171.175 77.375V67.475C171.175 63.35 167.8 60 163.7 60H136.175C132.075 60 128.7 63.35 128.7 67.475V77.025C128.75 79.4 127.8 81.725 126.15 83.4C124.475 85.1 122.25 86.025 119.875 86.05H119.825C117.45 86.05 115.25 85.15 113.575 83.475L106.65 76.55C103.725 73.675 98.975 73.675 96.075 76.6L76.925 96.175C75.525 97.6 74.75 99.475 74.75 101.475C74.75 103.475 75.55 105.325 76.95 106.75L83.85 113.625C85.5 115.3 86.45 117.625 86.4 120C86.375 122.375 85.425 124.6 83.725 126.25C82.05 127.875 79.85 128.775 77.5 128.775H67.475C63.35 128.775 60 132.125 60 136.225V163.825C60 167.925 63.35 171.3 67.475 171.3H77.175C79.5 171.3 81.75 172.225 83.425 173.85C85.125 175.525 86.05 177.75 86.05 180.125C86.075 182.5 85.175 184.75 83.5 186.425L76.5 193.425C75.15 194.825 74.4 196.675 74.4 198.65C74.4 200.625 75.2 202.525 76.625 203.925L96.1 223L96.2 223.075C99.125 225.975 103.875 225.975 106.75 223.025L113.625 216.15C115.325 214.5 117.525 213.6 119.9 213.6H120C122.375 213.625 124.6 214.575 126.25 216.275C127.925 217.975 128.8 220.225 128.775 222.625V232.525C128.775 236.65 132.125 240 136.25 240H163.775C165.775 239.9 167.575 239.05 168.875 237.7C170.175 236.35 170.95 234.55 170.95 232.525V223.15C170.925 220.8 171.85 218.475 173.525 216.775C175.2 215.1 177.425 214.15 179.8 214.15H179.85C182.2 214.15 184.425 215.05 186.1 216.7L193.1 223.7C196.025 226.525 200.725 226.475 203.6 223.6L223.1 204.075C224.5 202.675 225.275 200.8 225.25 198.8C225.25 196.8 224.475 194.925 223.05 193.525L216.175 186.625C214.5 184.95 213.575 182.625 213.6 180.275C213.65 177.9 214.6 175.675 216.3 174C217.975 172.4 220.175 171.5 222.5 171.5H232.525C236.65 171.5 240 168.15 240 164.025V136.525C240 132.4 236.65 129.05 232.525 129.05Z" fill="white"/>
<path d="M160 130C160 124.477 155.523 120 150 120C144.477 120 140 124.477 140 130V170C140 175.523 144.477 180 150 180C155.523 180 160 175.523 160 170V130Z" fill="#2970FF"/>
<path d="M185.325 130C185.325 124.477 180.848 120 175.325 120C169.802 120 165.325 124.477 165.325 130V170C165.325 175.523 169.802 180 175.325 180C180.848 180 185.325 175.523 185.325 170V130Z" fill="#FF692E"/>
<path d="M135.325 130C135.325 124.477 130.848 120 125.325 120C119.802 120 115.325 124.477 115.325 130V170C115.325 175.523 119.802 180 125.325 180C130.848 180 135.325 175.523 135.325 170V130Z" fill="#2970FF"/>
</g>
</g>
<defs>
<clipPath id="clip0_11002_3665">
<rect width="300" height="300" fill="white"/>
</clipPath>
<clipPath id="clip1_11002_3665">
<rect width="180" height="180" fill="white" transform="translate(60 60)"/>
</clipPath>
</defs>
</svg>
