<svg width="300" height="300" viewBox="0 0 300 300" fill="none" xmlns="http://www.w3.org/2000/svg">
<g clip-path="url(#clip0_11010_3671)">
<path d="M150 300C232.843 300 300 232.843 300 150C300 67.1573 232.843 0 150 0C67.1573 0 0 67.1573 0 150C0 232.843 67.1573 300 150 300Z" fill="#2970FF"/>
<path fill-rule="evenodd" clip-rule="evenodd" d="M88 113.461C88 106.197 93.8892 100.308 101.154 100.308H177.154C184.419 100.308 190.308 106.197 190.308 113.461V212.846C190.308 220.111 184.419 226 177.154 226H101.154C93.8892 226 88 220.111 88 212.846V113.461Z" fill="white"/>
<rect x="107" y="135.385" width="39.4616" height="7.30769" rx="3" fill="#2970FF"/>
<rect x="107" y="161.692" width="39.4616" height="7.30769" rx="3" fill="#FF692E"/>
<rect x="107" y="148.538" width="49.6923" height="7.30769" rx="3" fill="#2970FF"/>
<rect x="107" y="122.23" width="59.9231" height="7.30769" rx="3" fill="#2970FF"/>
<path fill-rule="evenodd" clip-rule="evenodd" d="M114.307 91.5385C114.307 86.6953 118.233 82.7692 123.077 82.7692H132.028V74H123.077C113.39 74 105.538 81.8522 105.538 91.5385V95.9231H114.307V91.5385ZM194.692 204.077V195.308C199.535 195.308 203.461 191.382 203.461 186.538V174.663H212.23V186.538C212.23 196.225 204.378 204.077 194.692 204.077ZM149.932 82.7692H167.836V74H149.932V82.7692ZM185.74 82.7692H194.692C199.535 82.7692 203.461 86.6954 203.461 91.5385V103.413H212.23V91.5385C212.23 81.8522 204.378 74 194.692 74H185.74V82.7692ZM203.461 127.163V150.913H212.23V127.163H203.461Z" fill="white"/>
</g>
<defs>
<clipPath id="clip0_11010_3671">
<rect width="300" height="300" fill="white"/>
</clipPath>
</defs>
</svg>
