<svg width="300" height="300" viewBox="0 0 300 300" fill="none" xmlns="http://www.w3.org/2000/svg">
<g clip-path="url(#clip0_11006_3680)">
<path d="M150 300C232.843 300 300 232.843 300 150C300 67.1573 232.843 0 150 0C67.1573 0 0 67.1573 0 150C0 232.843 67.1573 300 150 300Z" fill="#2970FF"/>
<path d="M80 81C80 77.134 83.134 74 87 74H213C216.866 74 220 77.134 220 81V219C220 222.866 216.866 226 213 226H87C83.134 226 80 222.866 80 219V81Z" fill="white"/>
<rect x="107.282" y="190.923" width="58.4615" height="8" rx="4" fill="#2970FF"/>
<rect x="138.462" y="173.385" width="27.2821" height="8" rx="4" fill="#2970FF"/>
<path d="M109.973 176.865C109.108 176.865 108.242 176.504 107.593 175.855C106.296 174.557 106.296 172.395 107.593 171.097L124.753 153.937L107.593 136.778C106.296 135.48 106.296 133.317 107.593 132.019C108.891 130.721 111.054 130.721 112.352 132.019L134.27 153.937L112.352 175.927C111.703 176.576 110.838 176.865 109.973 176.865Z" fill="#FF692E"/>
<circle cx="188" cy="85" r="3" fill="#F63D68"/>
<circle cx="198" cy="85" r="3" fill="#FAC515"/>
<circle cx="208" cy="85" r="3" fill="#15B79E"/>
</g>
<defs>
<clipPath id="clip0_11006_3680">
<rect width="300" height="300" fill="white"/>
</clipPath>
</defs>
</svg>
